/* XPM */
static char * harzcoin16_xpm[] = {
"16 16 163 2",
"  	c None",
". 	c #9E8E48",
"+ 	c #988743",
"@ 	c #938341",
"# 	c #918242",
"$ 	c #8D783A",
"% 	c #988C47",
"& 	c #B8A655",
"* 	c #988641",
"= 	c #BBB963",
"- 	c #CAD275",
"; 	c #C7CB6F",
"> 	c #C6D074",
", 	c #C1CD73",
"' 	c #B0B160",
") 	c #968240",
"! 	c #B5B35F",
"~ 	c #B5994A",
"{ 	c #9B8440",
"] 	c #C0BE67",
"^ 	c #AAA156",
"/ 	c #B3AF5E",
"( 	c #B5B15F",
"_ 	c #C0C069",
": 	c #C7CA6F",
"< 	c #C2C56C",
"[ 	c #947938",
"} 	c #BEB962",
"| 	c #8D6E31",
"1 	c #A38743",
"2 	c #B79D4F",
"3 	c #A7954C",
"4 	c #9C8A46",
"5 	c #A1934C",
"6 	c #A7954D",
"7 	c #B2AC5D",
"8 	c #A78F48",
"9 	c #B0A558",
"0 	c #C09343",
"a 	c #9D7735",
"b 	c #9C692B",
"c 	c #947436",
"d 	c #9B7D3D",
"e 	c #A28A45",
"f 	c #977738",
"g 	c #8E642B",
"h 	c #917539",
"i 	c #AB7B36",
"j 	c #997E3E",
"k 	c #957B3C",
"l 	c #A28843",
"m 	c #96692C",
"n 	c #AD964B",
"o 	c #B39749",
"p 	c #A15F1F",
"q 	c #9E6327",
"r 	c #8B5822",
"s 	c #906F33",
"t 	c #947738",
"u 	c #9B8542",
"v 	c #9B5E23",
"w 	c #B18940",
"x 	c #977132",
"y 	c #A08844",
"z 	c #97803F",
"A 	c #B9B05E",
"B 	c #B29E51",
"C 	c #AE8339",
"D 	c #A86522",
"E 	c #94571E",
"F 	c #94571F",
"G 	c #805724",
"H 	c #967334",
"I 	c #AA8B43",
"J 	c #9B7536",
"K 	c #B19146",
"L 	c #CCC167",
"M 	c #BE994A",
"N 	c #B19A4E",
"O 	c #9A7D3D",
"P 	c #B6B05F",
"Q 	c #A6823C",
"R 	c #B16823",
"S 	c #9B591F",
"T 	c #A36223",
"U 	c #8F6229",
"V 	c #947F40",
"W 	c #946D30",
"X 	c #A3803C",
"Y 	c #B4A758",
"Z 	c #7E5724",
"` 	c #886B33",
" .	c #AA8F47",
"..	c #B8AB59",
"+.	c #8B642C",
"@.	c #976429",
"#.	c #B46F26",
"$.	c #A76122",
"%.	c #A86727",
"&.	c #995F24",
"*.	c #886931",
"=.	c #9F7634",
"-.	c #A99049",
";.	c #996428",
">.	c #9E6728",
",.	c #805421",
"'.	c #876029",
").	c #90682E",
"!.	c #8A642C",
"~.	c #A26323",
"{.	c #A26C2A",
"].	c #B16F27",
"^.	c #AB611F",
"/.	c #97561C",
"(.	c #8D5B24",
"_.	c #B2A658",
":.	c #916A2E",
"<.	c #8A5C25",
"[.	c #9A6A2C",
"}.	c #A06323",
"|.	c #915E24",
"1.	c #8B6128",
"2.	c #8D5D24",
"3.	c #885C26",
"4.	c #AA7B30",
"5.	c #8F4F19",
"6.	c #8C4E19",
"7.	c #A0581B",
"8.	c #B79246",
"9.	c #A98B44",
"0.	c #925E24",
"a.	c #775220",
"b.	c #9B5B1F",
"c.	c #7E5624",
"d.	c #966D2C",
"e.	c #7D4C1C",
"f.	c #9B742E",
"g.	c #9D6629",
"h.	c #AC601D",
"i.	c #8C5A22",
"j.	c #A07635",
"k.	c #8B662D",
"l.	c #875B23",
"m.	c #95571D",
"n.	c #814F1C",
"o.	c #9B732D",
"p.	c #6E4F22",
"q.	c #6E4318",
"r.	c #956E2C",
"s.	c #7A5319",
"t.	c #864B16",
"u.	c #916B30",
"v.	c #8D652C",
"w.	c #8C6329",
"x.	c #925A1E",
"y.	c #9E742F",
"z.	c #714E20",
"A.	c #805824",
"B.	c #916B28",
"C.	c #9F732F",
"D.	c #9F742E",
"E.	c #94702B",
"F.	c #8B6429",
"                                ",
"          . + @ # $ %           ",
"      & * = - ; > , ' ) !       ",
"    ~ { ] ^ / ( ( _ : < [ }     ",
"    | 1 2 3 4 5 6 7 8 9 0 a     ",
"  b c d e f g h i j k l m n o   ",
"  p q r s t u v w x y z A B C   ",
"  D E F G H I J K L M N O P Q   ",
"  R S T U V W X Y Z `  ...+.@.  ",
"  #.$.%.&.*.=.-.;.>.,.'.).!.~.  ",
"  {.].^./.(._.:.<.[.}.|.1.2.3.  ",
"    4.5.6.7.8.9.0.a.b.|.c.d.    ",
"    e.f.g.h.i.j.k.l.m.n.o.p.    ",
"      q.r.s.t.u.v.w.x.y.z.      ",
"          A.B.C.D.E.F.          ",
"                                "};
