/* XPM */
static char * harzcoin32_xpm[] = {
"32 32 627 2",
"  	c None",
". 	c #C4BD65",
"+ 	c #C0BE67",
"@ 	c #AEA759",
"# 	c #9A954F",
"$ 	c #8F8545",
"% 	c #8E8444",
"& 	c #99944E",
"* 	c #A9A457",
"= 	c #B8BB66",
"- 	c #B0B563",
"; 	c #C8C268",
"> 	c #ABA557",
", 	c #765926",
"' 	c #735422",
") 	c #867034",
"! 	c #957E3C",
"~ 	c #A08C44",
"{ 	c #9D8F48",
"] 	c #917A3A",
"^ 	c #765523",
"/ 	c #653A11",
"( 	c #775825",
"_ 	c #BBC36A",
": 	c #C0B25C",
"< 	c #B8B05D",
"[ 	c #6F4F1E",
"} 	c #97823F",
"| 	c #CBD173",
"1 	c #C8D074",
"2 	c #C7CD71",
"3 	c #C8CA6E",
"4 	c #C5CD72",
"5 	c #BEC970",
"6 	c #B9C46E",
"7 	c #B7C36D",
"8 	c #B1B262",
"9 	c #897639",
"0 	c #714F20",
"a 	c #B9B661",
"b 	c #B3B25F",
"c 	c #D2BB5F",
"d 	c #958341",
"e 	c #816229",
"f 	c #C7C86D",
"g 	c #C0C169",
"h 	c #C1C36B",
"i 	c #C3C76D",
"j 	c #C4C96F",
"k 	c #BFBE67",
"l 	c #C2C46C",
"m 	c #C3C96F",
"n 	c #C6CD71",
"o 	c #C4CC71",
"p 	c #C2CB71",
"q 	c #C1CB71",
"r 	c #C2CC72",
"s 	c #C5CD71",
"t 	c #77501E",
"u 	c #A5954C",
"v 	c #BCC369",
"w 	c #C7B45C",
"x 	c #8C7437",
"y 	c #9B833D",
"z 	c #C5CA70",
"A 	c #BEC069",
"B 	c #ADA054",
"C 	c #B3AE5D",
"D 	c #B7B361",
"E 	c #BBBA65",
"F 	c #B7B461",
"G 	c #BBB965",
"H 	c #BFC069",
"I 	c #C4C86E",
"J 	c #C5CA6F",
"K 	c #C6CB70",
"L 	c #C6CC71",
"M 	c #C5CB70",
"N 	c #87682E",
"O 	c #9A8340",
"P 	c #BDBD66",
"Q 	c #CD9845",
"R 	c #8F793B",
"S 	c #937533",
"T 	c #BCB863",
"U 	c #B6B360",
"V 	c #BAA353",
"W 	c #AAA155",
"X 	c #A59950",
"Y 	c #A59B51",
"Z 	c #B5B361",
"` 	c #B7B663",
" .	c #AEA658",
"..	c #ACA457",
"+.	c #ADA558",
"@.	c #B8B462",
"#.	c #BCB964",
"$.	c #C2C26A",
"%.	c #C7C76C",
"&.	c #B2AB5C",
"*.	c #C2BF67",
"=.	c #BEBA63",
"-.	c #885E24",
";.	c #AD984D",
">.	c #C9CD6C",
",.	c #A88D46",
"'.	c #805921",
").	c #A69049",
"!.	c #AC9A4F",
"~.	c #B4A758",
"{.	c #B6883D",
"].	c #907035",
"^.	c #A79149",
"/.	c #AC9F52",
"(.	c #9A8342",
"_.	c #A0924C",
":.	c #A79D53",
"<.	c #9C8D49",
"[.	c #B1A659",
"}.	c #B0A95A",
"|.	c #B9B562",
"1.	c #B7AD5C",
"2.	c #B3AA5A",
"3.	c #B9B260",
"4.	c #AEA255",
"5.	c #C09D4C",
"6.	c #C09948",
"7.	c #80511C",
"8.	c #C1B65E",
"9.	c #B28139",
"0.	c #7A5621",
"a.	c #9D8542",
"b.	c #9E8643",
"c.	c #986B2F",
"d.	c #AD9148",
"e.	c #BBB15E",
"f.	c #BABF69",
"g.	c #AC9249",
"h.	c #948141",
"i.	c #968241",
"j.	c #9A8644",
"k.	c #A2954E",
"l.	c #AA9A4F",
"m.	c #A78942",
"n.	c #A59A50",
"o.	c #B5B05F",
"p.	c #9D6A2C",
"q.	c #998543",
"r.	c #AD9E53",
"s.	c #AE9F53",
"t.	c #BD7C32",
"u.	c #B08C42",
"v.	c #C28A3A",
"w.	c #805D27",
"x.	c #E0CE69",
"y.	c #9B6E30",
"z.	c #8A6328",
"A.	c #967A3B",
"B.	c #967839",
"C.	c #AB9249",
"D.	c #9D7D3B",
"E.	c #A99A50",
"F.	c #968544",
"G.	c #B6A454",
"H.	c #805523",
"I.	c #926D31",
"J.	c #957D3E",
"K.	c #988543",
"L.	c #A98C45",
"M.	c #9B7133",
"N.	c #998846",
"O.	c #A78640",
"P.	c #997234",
"Q.	c #937C3E",
"R.	c #A18F49",
"S.	c #AA9249",
"T.	c #B06F2B",
"U.	c #9D7535",
"V.	c #AB843D",
"W.	c #8C6C30",
"X.	c #C4A853",
"Y.	c #B77931",
"Z.	c #855720",
"`.	c #9A7637",
" +	c #95783B",
".+	c #916A30",
"++	c #9B7D3D",
"@+	c #A6934B",
"#+	c #9B7D3C",
"$+	c #7E5421",
"%+	c #95662B",
"&+	c #927F3F",
"*+	c #975B21",
"=+	c #8F6129",
"-+	c #8F7136",
";+	c #CF8E39",
">+	c #946B30",
",+	c #92793C",
"'+	c #927033",
")+	c #937D3E",
"!+	c #968242",
"~+	c #9A8442",
"{+	c #9D7434",
"]+	c #926228",
"^+	c #8B773A",
"/+	c #BDBB66",
"(+	c #BAA252",
"_+	c #89632A",
":+	c #D2C060",
"<+	c #A36322",
"[+	c #985A1D",
"}+	c #9C652A",
"|+	c #91662D",
"1+	c #8C612A",
"2+	c #925D25",
"3+	c #8E6B31",
"4+	c #AB944A",
"5+	c #9B8744",
"6+	c #8E8041",
"7+	c #917437",
"8+	c #89672E",
"9+	c #A66525",
"0+	c #CDAB54",
"a+	c #986127",
"b+	c #8B5D26",
"c+	c #90662C",
"d+	c #95793C",
"e+	c #7E5521",
"f+	c #8D7437",
"g+	c #BAB662",
"h+	c #BAB763",
"i+	c #B3A354",
"j+	c #B8A756",
"k+	c #895E25",
"l+	c #DCAF4E",
"m+	c #A26525",
"n+	c #A95D1A",
"o+	c #AA6222",
"p+	c #9B5D22",
"q+	c #875420",
"r+	c #8B551F",
"s+	c #81511E",
"t+	c #87672F",
"u+	c #95682D",
"v+	c #A79A51",
"w+	c #A9954C",
"x+	c #9C6326",
"y+	c #A06123",
"z+	c #C4A955",
"A+	c #926127",
"B+	c #8C642A",
"C+	c #C0AA57",
"D+	c #BDAB58",
"E+	c #9D8743",
"F+	c #A79B51",
"G+	c #B3A255",
"H+	c #B7A554",
"I+	c #AC974E",
"J+	c #A78E47",
"K+	c #B19C50",
"L+	c #956E30",
"M+	c #C59D49",
"N+	c #9E6528",
"O+	c #AC5E19",
"P+	c #9E5C1F",
"Q+	c #90561E",
"R+	c #8C531C",
"S+	c #9B5A20",
"T+	c #825421",
"U+	c #805D29",
"V+	c #89662E",
"W+	c #92521A",
"X+	c #A28943",
"Y+	c #C1BD67",
"Z+	c #ADA75A",
"`+	c #B18D43",
" @	c #B9893D",
".@	c #9C7938",
"+@	c #E5D571",
"@@	c #CFCB6E",
"#@	c #DCAA4F",
"$@	c #B89E50",
"%@	c #AD9C51",
"&@	c #AD9248",
"*@	c #A38541",
"=@	c #A58E48",
"-@	c #B0A053",
";@	c #B0984A",
">@	c #9D7435",
",@	c #AC6927",
"'@	c #A6611E",
")@	c #98561D",
"!@	c #91571F",
"~@	c #83511E",
"{@	c #A15F21",
"]@	c #875622",
"^@	c #7F5C29",
"/@	c #9E8E4A",
"(@	c #9D813E",
"_@	c #A86222",
":@	c #997B3B",
"<@	c #89541E",
"[@	c #87541F",
"}@	c #948544",
"|@	c #D9C163",
"1@	c #CDCC70",
"2@	c #9E7D3C",
"3@	c #A07636",
"4@	c #B8A052",
"5@	c #AE9D51",
"6@	c #BC9B4C",
"7@	c #916D31",
"8@	c #9E8844",
"9@	c #B3AE5E",
"0@	c #C4CB71",
"a@	c #B19749",
"b@	c #9E6C2E",
"c@	c #B5712A",
"d@	c #A85818",
"e@	c #94541C",
"f@	c #9E5A1E",
"g@	c #9C6327",
"h@	c #A35E20",
"i@	c #8F5B23",
"j@	c #87662E",
"k@	c #988544",
"l@	c #9D8E4A",
"m@	c #8F5E25",
"n@	c #987031",
"o@	c #A48440",
"p@	c #945C24",
"q@	c #A38B46",
"r@	c #C5C56C",
"s@	c #89632B",
"t@	c #805623",
"u@	c #86612B",
"v@	c #A8954C",
"w@	c #A9924A",
"x@	c #BCA655",
"y@	c #C7C268",
"z@	c #A9954B",
"A@	c #967637",
"B@	c #895D26",
"C@	c #986024",
"D@	c #9A6B2E",
"E@	c #B06E2A",
"F@	c #B3651D",
"G@	c #9D5A1E",
"H@	c #A46022",
"I@	c #A06224",
"J@	c #985D22",
"K@	c #916C31",
"L@	c #927A3C",
"M@	c #866730",
"N@	c #8A632B",
"O@	c #A18741",
"P@	c #A58943",
"Q@	c #AD954C",
"R@	c #AE984E",
"S@	c #AA954C",
"T@	c #85602A",
"U@	c #7B5725",
"V@	c #735425",
"W@	c #85662F",
"X@	c #9A793A",
"Y@	c #A28742",
"Z@	c #AA994F",
"`@	c #B4A153",
" #	c #8F6E33",
".#	c #895F29",
"+#	c #986729",
"@#	c #93652C",
"##	c #985B20",
"$#	c #C17627",
"%#	c #AA6221",
"&#	c #AC6826",
"*#	c #9D6629",
"=#	c #9E5C20",
"-#	c #915922",
";#	c #8D6A31",
">#	c #84652F",
",#	c #896029",
"'#	c #B18E43",
")#	c #B09148",
"!#	c #A37C39",
"~#	c #A16C2D",
"{#	c #91672D",
"]#	c #A26727",
"^#	c #7E5522",
"/#	c #7E521F",
"(#	c #7F5825",
"_#	c #8B622B",
":#	c #815F2A",
"<#	c #8A6B32",
"[#	c #967437",
"}#	c #996F31",
"|#	c #896930",
"1#	c #95591E",
"2#	c #9F682A",
"3#	c #AF5F1C",
"4#	c #C08331",
"5#	c #A66122",
"6#	c #AE6725",
"7#	c #B06623",
"8#	c #A46628",
"9#	c #9A6328",
"0#	c #996429",
"a#	c #845D28",
"b#	c #90793C",
"c#	c #A5984F",
"d#	c #9F5B1E",
"e#	c #B4AB5C",
"f#	c #997436",
"g#	c #9C6124",
"h#	c #94652A",
"i#	c #C48638",
"j#	c #8D5820",
"k#	c #7D501E",
"l#	c #8B5C24",
"m#	c #92652A",
"n#	c #855F29",
"o#	c #8F6228",
"p#	c #93652A",
"q#	c #855C26",
"r#	c #845B26",
"s#	c #9A591D",
"t#	c #B8732B",
"u#	c #784817",
"v#	c #C9913D",
"w#	c #B66A21",
"x#	c #AA6424",
"y#	c #B26621",
"z#	c #A15C1F",
"A#	c #9A591F",
"B#	c #98571D",
"C#	c #895721",
"D#	c #8B6B32",
"E#	c #AA9A51",
"F#	c #A7924A",
"G#	c #884D18",
"H#	c #A4964E",
"I#	c #7F521E",
"J#	c #A17C3A",
"K#	c #9E6424",
"L#	c #9A5D20",
"M#	c #A46928",
"N#	c #8C5921",
"O#	c #906127",
"P#	c #8D6229",
"Q#	c #885F28",
"R#	c #825925",
"S#	c #8D5C23",
"T#	c #9A6226",
"U#	c #735020",
"V#	c #9E6023",
"W#	c #BB8C35",
"X#	c #A65F20",
"Y#	c #AE6220",
"Z#	c #A45C1E",
"`#	c #95541B",
" $	c #8F5019",
".$	c #9A6428",
"+$	c #B29449",
"@$	c #BCC06A",
"#$	c #9E8E49",
"$$	c #834917",
"%$	c #854E1A",
"&$	c #8D5A22",
"*$	c #956528",
"=$	c #905D23",
"-$	c #9E5F20",
";$	c #9A6224",
">$	c #915B21",
",$	c #9A6427",
"'$	c #906328",
")$	c #845C26",
"!$	c #805A26",
"~$	c #A56722",
"{$	c #88602A",
"]$	c #8D4F18",
"^$	c #B29343",
"/$	c #AC611C",
"($	c #9D581D",
"_$	c #93531B",
":$	c #91521B",
"<$	c #8E501A",
"[$	c #90511A",
"}$	c #A25A1C",
"|$	c #C69443",
"1$	c #C0C46C",
"2$	c #B09F52",
"3$	c #977335",
"4$	c #A26A28",
"5$	c #7A4918",
"6$	c #734F1F",
"7$	c #7F5420",
"8$	c #985A1E",
"9$	c #985C1F",
"0$	c #955F23",
"a$	c #8D5E26",
"b$	c #7F5623",
"c$	c #885E25",
"d$	c #A17530",
"e$	c #7D5623",
"f$	c #92541C",
"g$	c #AD933D",
"h$	c #8B4D19",
"i$	c #894E1A",
"j$	c #8B4F19",
"k$	c #8A4E19",
"l$	c #8C4E19",
"m$	c #C47024",
"n$	c #AE6522",
"o$	c #A0823F",
"p$	c #B6964A",
"q$	c #9F7736",
"r$	c #9B5E21",
"s$	c #735322",
"t$	c #85541E",
"u$	c #96581E",
"v$	c #955D21",
"w$	c #865A23",
"x$	c #7C5725",
"y$	c #785323",
"z$	c #B28432",
"A$	c #715323",
"B$	c #AA6F2D",
"C$	c #A5822E",
"D$	c #7E4616",
"E$	c #8F561F",
"F$	c #9C6D2E",
"G$	c #C4792D",
"H$	c #C0691D",
"I$	c #936228",
"J$	c #855822",
"K$	c #A87F3A",
"L$	c #B28940",
"M$	c #9A7334",
"N$	c #8E652A",
"O$	c #755221",
"P$	c #915920",
"Q$	c #95571D",
"R$	c #92571D",
"S$	c #86521D",
"T$	c #815520",
"U$	c #785121",
"V$	c #AE802E",
"W$	c #58330E",
"X$	c #966A2D",
"Y$	c #AA8F3A",
"Z$	c #A67433",
"`$	c #9F5F22",
" %	c #8D4A12",
".%	c #904F17",
"+%	c #925118",
"@%	c #91642A",
"#%	c #8D6027",
"$%	c #916B2F",
"%%	c #83632B",
"&%	c #85612A",
"*%	c #89672D",
"=%	c #8B5720",
"-%	c #98581D",
";%	c #92551C",
">%	c #8A531D",
",%	c #7C4D1C",
"'%	c #AE8430",
")%	c #8A6A30",
"!%	c #613F16",
"~%	c #5A340F",
"{%	c #986429",
"]%	c #988339",
"^%	c #A16321",
"/%	c #874A17",
"(%	c #573410",
"_%	c #8A4F18",
":%	c #8B531B",
"<%	c #946C30",
"[%	c #80602A",
"}%	c #84632C",
"|%	c #8D662C",
"1%	c #89501A",
"2%	c #8D511B",
"3%	c #91571A",
"4%	c #AF8D3B",
"5%	c #906B30",
"6%	c #624017",
"7%	c #774617",
"8%	c #997F3A",
"9%	c #997B2F",
"0%	c #7E5812",
"a%	c #6F4412",
"b%	c #96541A",
"c%	c #A07131",
"d%	c #926E31",
"e%	c #906226",
"f%	c #966E30",
"g%	c #9D7031",
"h%	c #8F6026",
"i%	c #895016",
"j%	c #A97F32",
"k%	c #AA8A3E",
"l%	c #805320",
"m%	c #663910",
"n%	c #7A4C1B",
"o%	c #9F7D39",
"p%	c #A89139",
"q%	c #9B7C31",
"r%	c #94732C",
"s%	c #AA7E32",
"t%	c #A2782D",
"u%	c #9A7B31",
"v%	c #9D8837",
"w%	c #A78E3B",
"x%	c #AA883D",
"y%	c #835520",
"z%	c #764919",
"A%	c #58320E",
"B%	c #754012",
"C%	c #7E4C19",
"D%	c #A26B2A",
"E%	c #976A2D",
"F%	c #976A2C",
"G%	c #A66E2C",
"H%	c #85521C",
"I%	c #7E4A17",
"J%	c #684015",
"                                                                ",
"                                                                ",
"                      . + @ # $ % & * = -                       ",
"                  ; > , ' ) ! ~ { ] ^ / ( > _                   ",
"              : < [ } | 1 2 3 2 4 5 6 7 8 9 0 a b               ",
"            c d e f g h i j k l m n o p q r s t u v             ",
"          w x y z A B C D E D F G H I J K L M m N O P           ",
"        Q R S T U V W X Y Z `  ...+.@.#.$.%.&.*.=.-.;.>.        ",
"        ,.'.).!.~.{.].^./.(._.:.<.[.}.|.1.2.3.4.5.6.7.8.        ",
"      9.0.a.b.c.d.e.f.g.h.i.j.k.l.m.n.o.p.q.r.s.t.u.v.w.x.      ",
"      y.z.A.B.C.D.E.F.G.H.I.J.K.L.M.N.O.P.Q.R.S.T.U.V.W.X.      ",
"    Y.Z.`. +.+++@+#+$+%+&+*+=+-+;+>+,+'+)+!+~+{+]+^+/+(+_+:+    ",
"    <+[+}+|+1+2+3+4+5+6+7+8+9+|+0+a+b+c+d+B.e+f+g+h+i+j+k+l+    ",
"    m+n+o+p+q+r+s+t+u+I.v+w+x+y+z+A+B+C+D+E+F+G+H+I+J+K+L+M+    ",
"    N+O+P+Q+R+S+T+U+V+W+X+Y+Z+`+ @.@+@@@#@$@%@&@*@=@).-@;@>@    ",
"    ,@'@)@!@~@{@]@^@/@(@_@:@<@[@}@|@1@2@3@4@5@6@7@8@9@0@a@b@    ",
"    c@d@e@f@g@h@i@j@k@l@m@n@o@p@q@r@s@t@u@v@w@x@y@z@A@B@C@D@    ",
"    E@F@G@H@_@I@J@K@L@M@N@O@P@Q@R@S@T@U@V@W@X@Y@Z@`@ #.#+#@#    ",
"    ##$#H@%#&#*#=#-#;#>#,#'#)#!#~#{#]#^#/#(#_#:#<#[#}#|#1#2#    ",
"    3#4#5#6#7#8#9#0#a#b#c#d#e#f#g#h#i#j#k#l#m#n#o#p#q#r#s#t#    ",
"    u#v#w#x#y#z#A#B#C#D#E#F#G#H#2@I#J#K#L#M#N#O#P#Q#R#S#T#U#    ",
"      V#W#X#Y#Z#e@`# $.$+$@$#$$$%$&$*$=$-$;$>$,$'$)$!$~${$      ",
"      ]$^$/$($_$:$<$[$}$|$1$2$3$4$5$6$7$8$9$0$A+a$b$c$d$e$      ",
"        f$g$h$i$j$k$l$m$n$o$p$q$;#r$s$t$u$-$v$w$x$y$z$A$        ",
"          B$C$D$E$F$G$H$I$J$K$L$M$N$O$P$Q$R$S$T$U$V$t+          ",
"          W$X$Y$Z$`$ %.%+%@%#%$%%%&%*%=%-%;%>%,%'%)%!%          ",
"            ~%{%]%^%/%(%_%:%<%[%}%|%*%e+1%2%3%4%5%6%            ",
"                7%8%9%0%a%b%c%d%e%f%g%h%i%j%k%l%                ",
"                  m%n%o%p%q%r%s%t%u%v%w%x%y%z%                  ",
"                      A%B%C%D%E%F%G%H%I%J%                      ",
"                                                                ",
"                                                                "};
